<svg viewBox="0 0 16 16" xmlns="http://www.w3.org/2000/svg"><path d="m14.24524 6.95515-.43924-3.29782c-.11487-.59469-.50684-.83119-1.088-1.07447a9.9481 9.9481 0 0 0 -2.9937-.52036 9.9414 9.9414 0 0 0 -2.987.52036c-.57443.24328-.97312.47978-1.09476 1.07447l-.43249 3.29782v4.55476h.80757v.77716a.56687.56687 0 0 0 .29734.48655c.04055.02029.08109.04054.11487.05407a.68938.68938 0 0 0 .09462.027.57567.57567 0 0 0 .15546.02029h.22974a.63557.63557 0 0 0 .669-.58793v-.77716h4.363v.77716a.56686.56686 0 0 0 .29735.48655c.04054.02029.08109.04054.11487.05407a.689.689 0 0 0 .09462.027.57561.57561 0 0 0 .15546.02029h.22974a.63557.63557 0 0 0 .669-.58793v-.77716h.74251zm-6.64292-3.93953h4.25068c.20273 0 .37167.23083.37167.50782s-.16894.50781-.37167.50781h-4.25068c-.20272 0-.37167-.23083-.37167-.50781s.16895-.50782.37167-.50782zm-1.03959 4.55438.3006-2.33388a.31412.31412 0 0 1 .32226-.26712h5.12466a.31832.31832 0 0 1 .32226.26712l.34395 2.33388v.10421a.32557.32557 0 0 1 -.3223.32579h-5.78109a.33171.33171 0 0 1 -.31034-.3388.23335.23335 0 0 1 0-.0912zm.6465 2.75347a.82854.82854 0 1 1 -.03708-1.65432.83107.83107 0 1 1 .03708 1.65432zm5.01541 0a.82854.82854 0 1 1 -.03709-1.65432.83107.83107 0 1 1 .03709 1.65432z" fill="#1c1e23"/><path d="m8.00091 0a8.04043 8.04043 0 0 0 -7.9991 8 7.9991 7.9991 0 1 0 7.9991-8" fill="#7c878e"/><g fill="#fff"><path d="m3.63786 9.8223a1.14 1.14 0 0 0 .34654.40659 1.49343 1.49343 0 0 0 .50678.23087 2.39556 2.39556 0 0 0 .60268.07537 3.11689 3.11689 0 0 0 .45163-.03523 1.56955 1.56955 0 0 0 .45194-.13543.99079.99079 0 0 0 .35144-.27622.69366.69366 0 0 0 .14033-.44672.62889.62889 0 0 0 -.18568-.47186 1.47152 1.47152 0 0 0 -.48687-.30119 4.86918 4.86918 0 0 0 -.68265-.211q-.38193-.09031-.77335-.20069a6.79362 6.79362 0 0 1 -.78284-.246 2.68728 2.68728 0 0 1 -.683-.37641 1.77312 1.77312 0 0 1 -.48681-.57738 1.753 1.753 0 0 1 -.18568-.83831 1.87587 1.87587 0 0 1 .23593-.95887 2.13608 2.13608 0 0 1 .61739-.6776 2.69117 2.69117 0 0 1 .86343-.40168 3.67964 3.67964 0 0 1 .96393-.13054 4.5689 4.5689 0 0 1 1.07913.12547 2.69752 2.69752 0 0 1 .91888.40674 2.06135 2.06135 0 0 1 .6376.71779 2.20338 2.20338 0 0 1 .23592 1.05922h-1.52616a1.27042 1.27042 0 0 0 -.13574-.53206.88765.88765 0 0 0 -.30609-.33137 1.29687 1.29687 0 0 0 -.43661-.17067 2.69722 2.69722 0 0 0 -.53712-.05012 1.85528 1.85528 0 0 0 -.38177.04014 1.02166 1.02166 0 0 0 -.34623.14048.86862.86862 0 0 0 -.25615.25109.67478.67478 0 0 0 -.10019.38147.64327.64327 0 0 0 .08028.34132.71239.71239 0 0 0 .3162.241 4.01868 4.01868 0 0 0 .65262.22091q.4164.11053 1.08925.28112.20083.04022.55734.14554a2.675 2.675 0 0 1 .70777.33642 2.14226 2.14226 0 0 1 .60728.61739 1.75791 1.75791 0 0 1 .25615.9889 2.19057 2.19057 0 0 1 -.19088.91368 1.98594 1.98594 0 0 1 -.56715.728 2.7248 2.7248 0 0 1 -.93359.47675 4.41477 4.41477 0 0 1 -1.29024.17079 4.53194 4.53194 0 0 1 -1.1496-.14569 2.888 2.888 0 0 1 -.9839-.45684 2.25274 2.25274 0 0 1 -.67775-.79311 2.36724 2.36724 0 0 1 -.24113-1.14455h1.52621a1.31475 1.31475 0 0 0 .13053.61249z"/><path d="m10.52537 4.42066v5.84334h3.49385v1.32532h-5.07022v-7.16866z"/></g></svg>