<svg viewBox="0 0 48 48" xmlns="http://www.w3.org/2000/svg"><path d="m24.1243 47.99966c13.44407-.345 24.21936-11.27548 23.86731-24.128-.36293-13.24984-10.87152-23.94217-24.12394-23.8713a24 24 0 0 0 .25663 47.9993" fill="#7c878e"/><g fill="#fff"><path d="m10.09681 29.80811a3.63315 3.63315 0 0 0 1.1045 1.29589 4.75948 4.75948 0 0 0 1.61523.73584 7.63543 7.63543 0 0 0 1.9209.24024 9.93274 9.93274 0 0 0 1.43945-.11231 5.00207 5.00207 0 0 0 1.44043-.43164 3.15768 3.15768 0 0 0 1.12012-.88037 2.2109 2.2109 0 0 0 .44726-1.42383 2.00429 2.00429 0 0 0 -.59179-1.5039 4.68917 4.68917 0 0 0 -1.55176-.96 15.52175 15.52175 0 0 0 -2.17578-.67237q-1.2173-.28784-2.46485-.63965a21.65159 21.65159 0 0 1 -2.49511-.78417 8.56669 8.56669 0 0 1 -2.17676-1.19971 5.65161 5.65161 0 0 1 -1.55176-1.84033 5.58714 5.58714 0 0 1 -.5918-2.6718 5.97883 5.97883 0 0 1 .752-3.05615 6.80819 6.80819 0 0 1 1.96777-2.15967 8.57779 8.57779 0 0 1 2.752-1.28027 11.72871 11.72871 0 0 1 3.07227-.416 14.56164 14.56164 0 0 1 3.43945.3999 8.59731 8.59731 0 0 1 2.92871 1.29639 6.57011 6.57011 0 0 1 2.03223 2.2876 7.0226 7.0226 0 0 1 .75195 3.376h-4.86434a4.04954 4.04954 0 0 0 -.43262-1.6958 2.82958 2.82958 0 0 0 -.97559-1.05615 4.13375 4.13375 0 0 0 -1.3916-.54394 8.59438 8.59438 0 0 0 -1.71191-.15967 5.91417 5.91417 0 0 0 -1.2168.12793 3.25688 3.25688 0 0 0 -1.10352.44775 2.7684 2.7684 0 0 0 -.8164.80029 2.15055 2.15055 0 0 0 -.31934 1.21583 2.05037 2.05037 0 0 0 .25586 1.08789 2.27051 2.27051 0 0 0 1.00781.76806 12.8037 12.8037 0 0 0 2.08008.7041q1.32715.35231 3.47168.896.64014.12818 1.77637.46387a8.5262 8.5262 0 0 1 2.25585 1.07217 6.82788 6.82788 0 0 1 1.93555 1.96778 5.603 5.603 0 0 1 .8164 3.15185 6.98145 6.98145 0 0 1 -.6084 2.91211 6.32927 6.32927 0 0 1 -1.80755 2.32031 8.68451 8.68451 0 0 1 -2.97559 1.51953 14.07106 14.07106 0 0 1 -4.1123.54444 14.44367 14.44367 0 0 1 -3.66407-.46436 9.20414 9.20414 0 0 1 -3.13574-1.456 7.17985 7.17985 0 0 1 -2.16016-2.52783 7.54494 7.54494 0 0 1 -.76855-3.648h4.86421a4.19062 4.19062 0 0 0 .41601 1.95215z"/><path d="m32.049 12.5918v18.624h11.1357v4.22412h-16.16015v-22.84812z"/></g></svg>