<svg viewBox="0 0 16 16" xmlns="http://www.w3.org/2000/svg"><path d="m12.87823 10.51129v-5.87878a1.05647 1.05647 0 0 0 -.36517-.798.99749.99749 0 0 1 -.38806-.74212v-1.4561a1.01116 1.01116 0 0 0 -.79321-.96329 26.91853 26.91853 0 0 0 -3.05023-.63644 1.36026 1.36026 0 0 0 -.57868-.00012c-.857.18591-1.89258.36169-2.73578.597-.50665.14-1.03991.42-1.03991 1.02655v1.4419a.98865.98865 0 0 1 -.40015.7464 1.04994 1.04994 0 0 0 -.37641.808v5.855a1.774 1.774 0 0 0 .58 1.03345l1.59772 1.171-1.98835 3.28426h1l.28943-.47809h6.74657l.284.47809h1l-1.96386-3.307 1.55072-1.14831a1.812 1.812 0 0 0 .63137-1.0334zm-4.05834-9.24267a.33293.33293 0 0 1 .40325-.32662l1.64649.34661a.32875.32875 0 0 1 .2633.32331v.97988a.33214.33214 0 0 1 -.3966.3266l-1.64649-.31995a.33231.33231 0 0 1 -.27-.32666zm-2.53125 11.51263h3.45983l.49176.82806h-4.45288zm1.71136-8a1.13541 1.13541 0 1 1 -1.13544 1.13544 1.13545 1.13545 0 0 1 1.13544-1.13544zm-3.0329-3.16937a.32839.32839 0 0 1 .2666-.32331l1.64643-.34657a.33158.33158 0 0 1 .4.32666v1.00313a.33263.33263 0 0 1 -.26666.32666l-1.64976.31995a.33349.33349 0 0 1 -.39661-.3266zm-.2782 8.89734a.79755.79755 0 1 1 .79956.79962.8.8 0 0 1 -.79956-.79962zm.21686 4.55633.60535-.99994h5.00006l.59387.99994zm5.58324-3.75671a.79755.79755 0 1 1 .79553-.79962.80091.80091 0 0 1 -.79553.79962z" fill="#1c1e23"/></svg>