<svg viewBox="0 0 16 16" xmlns="http://www.w3.org/2000/svg"><path d="m12 10.79626v-6.89251a1.92346 1.92346 0 0 0 -1.95-1.90375h-1.20826l.419-1.38428a2.8474 2.8474 0 0 1 1.09766.61914.19992.19992 0 1 0 .2793-.28613 4.08422 4.08422 0 0 0 -3.0586-.937 3.0761 3.0761 0 0 0 -2.23828.95653.2.2 0 1 0 .31445.24707 2.1487 2.1487 0 0 1 1.07221-.63861l.43078 1.42328h-1.20826a1.92346 1.92346 0 0 0 -1.95 1.90375v6.89251a1.90945 1.90945 0 0 0 1.664 1.87574l-1.664 3.328h1l.5-1h5l.5 1h1l-1.664-3.328a1.90945 1.90945 0 0 0 1.664-1.87574zm-4.88409-10.31726a4.12423 4.12423 0 0 1 .48956-.06836 4.44742 4.44742 0 0 1 1.26678.10749l-.44848 1.48187h-.84754zm-1.11591 2.71509a.19412.19412 0 0 1 .19415-.19409h3.61408a.1918.1918 0 0 1 .19177.19177v.61646a.1918.1918 0 0 1 -.19177.19177h-3.61408a.19413.19413 0 0 1 -.19415-.19415zm-1 2.80591v-1h6v2h-6zm-.21 4.84509a.83025.83025 0 1 1 .83.81031.82028.82028 0 0 1 -.83-.81031zm4.21 3.15491h-3l.65-1.3h2.7l.65 1.3zm1.32-2.3446a.81556.81556 0 1 1 .84-.81031.81831.81831 0 0 1 -.84.81031z" fill="#1c1e23"/></svg>