<svg viewBox="0 0 16 16" xmlns="http://www.w3.org/2000/svg"><path d="m5.43556 11.42222a.88889.88889 0 1 0 -.88889-.88889.88888.88888 0 0 0 .88889.88889zm3.55111-8.42222a.33335.33335 0 0 0 .3464-.31973q.00027-.0068.00026-.0136v-.57778a.33778.33778 0 0 0 -.33333-.32445h-1.98222a.33778.33778 0 0 0 -.33778.32445v.57778a.33335.33335 0 0 0 .33772.32889h.00006zm1.45333 3.69778a.96889.96889 0 0 0 1.01333-.92231q.00215-.04548 0-.091v-1.30669a.96444.96444 0 0 0 -1.01333-1.01778h-4.88889a.96445.96445 0 0 0 -1.01333 1.01778v1.30666a.96889.96889 0 0 0 .9223 1.01334q.0455.00213.091 0zm.09333 4.72444a.88446.88446 0 1 0 -.00889 0zm-1.77777-10.29333a.56445.56445 0 1 1 0-1.12889.56445.56445 0 0 1 0 1.12889zm-1.49778 0a.39912.39912 0 1 1 .00016.00016q-.00675 0-.0135-.00016zm.74222 12.41333h-2.29778l-1.67555 2.45778h-1.36l2.34222-3.51556a1.99111 1.99111 0 0 1 -1.55556-1.92888v-7.26223a2.00445 2.00445 0 0 1 2.04-1.96h5.01334a2.00445 2.00445 0 0 1 2.03111 1.96445v7.25778a1.99111 1.99111 0 0 1 -1.55556 1.92888l2.35111 3.51556h-1.33333l-1.67556-2.45778z" fill="#1c1e23"/></svg>